<svg height="24" viewBox="0 0 24 24" width="24" xmlns="http://www.w3.org/2000/svg"><path d="m10.5 16h-1.5v-5.79l-1.78.55v-1.23l3.14-1.12h.14zm3.57-7.79c1.43 0 2.57 1.15 2.57 2.57v2.64c0 1.42-1.14 2.58-2.57 2.58s-2.57-1.16-2.57-2.58v-2.64c0-1.42 1.15-2.57 2.57-2.57m-.01 1.44c-.59 0-1.06.48-1.06 1.06v2.79c0 .57.47 1.04 1.06 1.04.58 0 1.08-.48 1.08-1.04v-2.79c0-.59-.5-1.06-1.08-1.06m-2.06-7.65c-.5 0-1 .19-1.41.59l-8 8c-.79.78-.79 2.04 0 2.82l8 8c.78.79 2.04.79 2.82 0l8-8c.79-.78.79-2.04 0-2.82l-8-8c-.41-.4-.91-.59-1.41-.59m0 2 8 8-8 8-8-8z"/></svg>